# AST/ASF file generated using VICON BodyLanguage
# -----------------------------------------------
:version 1.10
:name VICON
:units
  mass 1.0
  length 0.45
  angle deg
:documentation
   .ast/.asf automatically generated from VICON data using
   VICON BodyBuilder and BodyLanguage model FoxedUp or BRILLIANT.MOD
:root
   order TX TY TZ RX RY RZ
   axis XYZ
   position 0 0 0  
   orientation 0 0 0 
:bonedata
  begin
     id 1 
     name lhipjoint
     direction 0.661853 -0.702389 0.261917 
     length 2.64193 
     axis 0 0 0  XYZ
  end
  begin
     id 2 
     name lfemur
     direction 0.34202 -0.939693 0  
     length 7.01722  
     axis 0 0 20  XYZ
    dof rx ry rz
    limits (-160.0 20.0)
           (-70.0 70.0)
           (-60.0 70.0)
  end
  begin
     id 3 
     name ltibia
     direction 0.34202 -0.939693 0   
     length 8.25008   
     axis 0 0 20   XYZ
    dof rx
    limits (-10.0 170.0)
  end
  begin
     id 4 
     name lfoot
     direction 0.0709916 -0.195048 0.978221   
     length 2.31941   
     axis -90 7.62852e-016 20   XYZ
    dof rx rz
    limits (-45.0 90.0)
           (-70.0 20.0)
  end
  begin
     id 5 
     name ltoes
     direction 1.53586e-011 -4.22017e-011 1   
     length 1.16486   
     axis -90 7.62852e-016 20   XYZ
    dof rx
    limits (-90.0 20.0)
  end
  begin
     id 6 
     name rhipjoint
     direction -0.638185 -0.721362 0.268992   
     length 2.57244  
     axis 0 0 0  XYZ 
  end
  begin
     id 7 
     name rfemur
     direction -0.34202 -0.939693 0   
     length 7.07017   
     axis 0 0 -20   XYZ
    dof rx ry rz
    limits (-160.0 20.0)
           (-70.0 70.0)
           (-70.0 60.0)
  end
  begin
     id 8 
     name rtibia
     direction -0.34202 -0.939693 0   
     length 8.20386   
     axis 0 0 -20   XYZ
    dof rx
    limits (-10.0 170.0)
 end
 begin
     id 9 
     name rfoot
     direction -0.0822429 -0.225961 0.970658   
     length 2.32215  
     axis -90 -7.62852e-016 -20   XYZ
    dof rx rz
    limits (-45.0 90.0)
           (-20.0 70.0)
  end
  begin
     id 10 
     name rtoes
     direction -1.53597e-011 -4.21689e-011 1   
     length 1.16333   
     axis -90 -7.62852e-016 -20   XYZ
    dof rx
    limits (-90.0 20.0)
  end
  begin
     id 11 
     name lowerback
     direction -0.0131557 0.998589 -0.0514484   
     length 2.14993   
     axis 0 0 0   XYZ
    dof rx ry rz
    limits (-20.0 45.0)
           (-30.0 30.0)
           (-30.0 30.0)
  end
  begin
     id 12 
     name upperback
     direction -0.000776481 0.999993 0.00352685   
     length 2.15301   
     axis 0 0 0   XYZ
    dof rx ry rz
    limits (-20.0 45.0)
           (-30.0 30.0)
           (-30.0 30.0)
  end
  begin
     id 13 
     name thorax
     direction 0.00438186 0.999609 0.0276143   
     length 2.15424   
     axis 0 0 0   XYZ
    dof rx ry rz
    limits (-20.0 45.0)
           (-30.0 30.0)
           (-30.0 30.0)
  end
  begin
     id 14 
     name lowerneck
     direction -0.0488006 0.998094 0.0377807   
     length 1.90481   
     axis 0 0 0   XYZ
    dof rx ry rz
    limits (-20.0 45.0)
           (-30.0 30.0)
           (-30.0 30.0)
  end
  begin
     id 15 
     name upperneck
     direction 0.0443769 0.990702 -0.12861   
     length 1.91305   
     axis 0 0 0   XYZ
    dof rx ry rz
    limits (-20.0 45.0)
           (-30.0 30.0)
           (-30.0 30.0)
  end
  begin
     id 16
     name head
     direction 0.0165599 0.998647 -0.0492982  
     length 1.92369  
     axis 0 0 0   XYZ
    dof rx ry rz
    limits (-20.0 45.0)
           (-30.0 30.0)
           (-30.0 30.0)
  end
  begin
     id 17 
     name lclavicle
     direction 0.911936 0.410197 -0.0105506  
     length 3.52622  
     axis 0 0 0   XYZ
    dof ry rz
    limits (-20.0 10.0)
           (0.0 20.0)
  end
  begin
     id 18 
     name lhumerus
     direction 1 -4.48974e-011 -2.48591e-028   
     length 5.47651   
     axis 180 -30 -90   XYZ
    dof rx ry rz
    limits (-60.0 90.0)
           (-90.0 90.0)
           (-90.0 90.0)
  end
  begin
     id 19
     name lradius
     direction 1 -4.48938e-011 -4.40099e-027   
     length 3.09058   
     axis 180 -30 -90   XYZ
    dof rx
    limits (-10.0 170.0)
  end
  begin
     id 20
     name lwrist
     direction 1 -4.49042e-011 -2.99852e-027   
     length 1.54529   
     axis 1.95339e-015 90 90   XYZ
    dof ry
    limits (-180.0 0.0)
 end
  begin
     id 21 
     name lhand
     direction 1 -4.48815e-011 -5.98193e-027   
     length 0.771611   
     axis 3.82337e-015 90 90   XYZ
    dof rx rz
    limits (-90.0 90.0)
           (-45.0 45.0)
  end
  begin
     id 22 
     name lfingers
     direction 1 -4.49034e-011 -1.1993e-026   
     length 0.622093   
     axis 7.64668e-015 90 90   XYZ
    dof rx
    limits (0.0 90.0)
  end
  begin
     id 23
     name lthumb
     direction 0.707107 -6.34867e-011 0.707107   
     length 0.893204   
     axis -90 45 -1.62303e-014   XYZ
    dof rx rz
    limits (-45.0 45.0)
           (-45.0 45.0)
  end
  begin
     id 24 
     name rclavicle
     direction -0.93442 0.355634 -0.0195692   
     length 3.62463  
     axis 0 0 0   XYZ 
    dof ry rz
    limits (-10.0 20.0)
           (-20.0 0.0)
  end
  begin
     id 25 
     name rhumerus
     direction -1 -4.48957e-011 -1.19147e-027  
     length 5.14182   
     axis 180 30 90   XYZ
    dof rx ry rz
    limits (-90.0 60.0)
           (-90.0 90.0)
           (-90.0 90.0)
  end
  begin
     id 26 
     name rradius
     direction -1 -4.48952e-011 -3.81062e-027   
     length 3.35565   
     axis 180 30 90   XYZ
    dof rx
    limits (-10.0 170.0)
  end
  begin
     id 27 
     name rwrist
     direction -1 -4.48973e-011 -2.99621e-027   
     length 1.67782   
     axis 1.95339e-015 -90 -90   XYZ
    dof ry
    limits (-180.0 0.0)
  end
  begin
     id 28
     name rhand
     direction -1 -4.48895e-011 -5.98727e-027   
     length 0.801042   
     axis 3.82337e-015 -90 -90   XYZ
    dof rx rz
    limits (-90.0 90.0)
           (-45.0 45.0)
  end
  begin
     id 29
     name rfingers
     direction -1 -4.49065e-011 -1.19972e-026   
     length 0.645821   
     axis 7.64668e-015 -90 -90   XYZ
    dof rx
    limits (0.0 90.0)
  end
  begin
     id 30
     name rthumb
     direction -0.707107 -6.34957e-011 0.707107   
     length 0.927273   
     axis -90 -45 1.62303e-014   XYZ
    dof rx rz
    limits (-45.0 45.0)
           (-45.0 45.0)
  end
:hierarchy
  begin
    root lhipjoint rhipjoint lowerback
    lhipjoint lfemur
    lfemur ltibia
    ltibia lfoot
    lfoot ltoes
    rhipjoint rfemur
    rfemur rtibia
    rtibia rfoot
    rfoot rtoes
    lowerback upperback
    upperback thorax
    thorax lowerneck lclavicle rclavicle
    lowerneck upperneck
    upperneck head
    lclavicle lhumerus
    lhumerus lradius
    lradius lwrist
    lwrist lhand lthumb
    lhand lfingers
    rclavicle rhumerus
    rhumerus rradius
    rradius rwrist
    rwrist rhand rthumb
    rhand rfingers
  end

#!OML:ASF E:\Style4\Style4.ASF
:FULLY-SPECIFIED
:DEGREES
466
root -0.747786 17.6885 -1.7041 7.91803 24.0526 3.24628
lowerback 10.7051 4.14133 0.453208
upperback 2.70091 5.51732 -0.979118
thorax -3.02151 2.74412 -1.98501
lowerneck -1.19908 -5.54198 -4.87072
upperneck 0.902531 -7.41489 7.1157
head 0.983125 -3.67432 3.00667
rclavicle 7.27552e-014 -2.74323e-014
rhumerus 61.47 10.4015 -27.9779
rradius 56.7197
rwrist -29.9364
rhand -25.5336 31.8474
rfingers 7.12502
rthumb 0.996176 1.86998
lclavicle 7.27552e-014 -2.74323e-014
lhumerus 55.1488 -14.8643 29.6369
lradius 73.9401
lwrist 42.4613
lhand -18.0106 24.7872
lfingers 7.12502
lthumb 8.26015 54.6057
rfemur -23.9972 -13.127 19.4511
rtibia 39.3264
rfoot -22.8556 -23.2932
rtoes -1.37677
lfemur -27.9435 -8.15115 -20.3243
ltibia 33.2535
lfoot -11.6296 0.350607
ltoes -18.0573
467
root -0.75543 17.6982 -1.72939 8.12337 23.9145 3.27516
lowerback 10.802 4.10839 0.447503
upperback 2.74597 5.47201 -1.00106
thorax -3.02761 2.72176 -2.00443
lowerneck -1.12184 -5.70473 -4.94701
upperneck 0.960638 -7.63941 7.25607
head 1.01324 -3.78663 3.06364
rclavicle 8.36883e-014 0
rhumerus 60.8146 10.5178 -28.0078
rradius 55.9999
rwrist -29.3173
rhand -25.2797 31.2496
rfingers 7.12502
rthumb 1.2414 1.27342
lclavicle 8.36883e-014 0
lhumerus 54.6145 -15.2478 28.4193
lradius 73.9698
lwrist 42.7543
lhand -16.9383 25.0041
lfingers 7.12502
lthumb 9.29492 54.7792
rfemur -24.2499 -12.9625 19.4605
rtibia 39.1843
rfoot -22.6507 -23.2896
rtoes -1.48193
lfemur -28.1057 -8.15323 -20.3176
ltibia 33.0017
lfoot -11.3861 0.495829
ltoes -17.9914
468
root -0.763442 17.7046 -1.75484 8.2921 23.76 3.28522
lowerback 10.8651 4.07681 0.356267
upperback 2.82221 5.4224 -0.935043
thorax -2.99956 2.69806 -1.881
lowerneck -1.0552 -5.8599 -5.16328
upperneck 1.02764 -7.85223 7.39543
head 1.05442 -3.89363 3.14594
rclavicle 7.196e-014 -2.18663e-014
rhumerus 60.3188 10.6164 -27.7328
rradius 55.2437
rwrist -28.9305
rhand -25.1882 30.6581
rfingers 7.12502
rthumb 1.32978 0.68247
lclavicle 7.196e-014 -2.18663e-014
lhumerus 54.0387 -15.6905 27.3568
lradius 73.8404
lwrist 43.1286
lhand -16.5128 25.7162
lfingers 7.12502
lthumb 9.70544 55.4726
rfemur -24.4854 -12.7484 19.4792
rtibia 39.0406
rfoot -22.4577 -23.3125
rtoes -1.37323
lfemur -28.2453 -8.1707 -20.2857
ltibia 32.7736
lfoot -11.2546 0.714358
ltoes -18.295
469
root -0.769973 17.711 -1.78068 8.37904 23.6057 3.24715
lowerback 10.9298 4.03193 0.21947
upperback 2.93657 5.35378 -0.77023
thorax -2.94672 2.66527 -1.62634
lowerneck -0.948219 -5.98972 -5.37147
upperneck 0.976063 -8.0253 7.41975
head 1.04212 -3.98359 3.19178
rclavicle 2.60408e-014 -1.74931e-014
rhumerus 59.9419 10.764 -27.265
rradius 54.5078
rwrist -28.7217
rhand -24.9471 30.0007
rfingers 7.12502
rthumb 1.56266 0.0266622
lclavicle 2.60408e-014 -1.74931e-014
lhumerus 53.356 -16.1405 26.6462
lradius 73.5849
lwrist 43.4123
lhand -16.0352 26.3389
lfingers 7.12502
lthumb 10.1662 56.0733
rfemur -24.6339 -12.5924 19.5239
rtibia 38.8899
rfoot -22.3682 -23.24
rtoes -0.841987
lfemur -28.3189 -8.17105 -20.2268
ltibia 32.5753
lfoot -11.1535 0.928948
ltoes -18.7119
470
root -0.776002 17.7203 -1.80689 8.44932 23.4028 3.17487
lowerback 11.0133 3.95512 0.0898235
upperback 3.09615 5.24499 -0.570421
thorax -2.85986 2.61273 -1.3336
lowerneck -1.12184 -6.11094 -5.68937
upperneck 1.01146 -8.17929 7.46186
head 1.1127 -4.05855 3.254
rclavicle 6.71892e-014 -3.4191e-014
rhumerus 59.6885 10.9366 -26.9006
rradius 53.7347
rwrist -28.548
rhand -24.6538 29.534
rfingers 7.12502
rthumb 1.84589 -0.437727
lclavicle 6.71892e-014 -3.4191e-014
lhumerus 52.552 -16.4824 26.0233
lradius 73.2472
lwrist 43.4127
lhand -15.1183 26.6046
lfingers 7.12502
lthumb 11.0507 56.2937
rfemur -24.7894 -12.4427 19.607
rtibia 38.7212
rfoot -22.1465 -23.1845
rtoes -0.718748
lfemur -28.4065 -8.08108 -20.1523
ltibia 32.4011
lfoot -10.9876 1.11934
ltoes -19.3779
471
root -0.782118 17.7286 -1.83072 8.50215 23.1725 3.08483
lowerback 11.07 3.77736 -0.122586
upperback 3.25602 4.99668 -0.28009
thorax -2.77405 2.49041 -0.881574
lowerneck -1.29167 -6.13349 -6.26554
upperneck 1.10412 -8.19806 7.49644
head 1.20452 -4.06733 3.36533
rclavicle -1.31198e-014 1.74931e-014
rhumerus 59.7288 11.3131 -26.521
rradius 52.9888
rwrist -28.4552
rhand -24.4583 29.2471
rfingers 7.12502
rthumb 2.03471 -0.722902
lclavicle -1.31198e-014 1.74931e-014
lhumerus 51.2686 -16.7518 25.4685
lradius 72.9108
lwrist 43.1769
lhand -14.1631 26.5259
lfingers 7.12502
lthumb 11.9718 56.1635
rfemur -24.9379 -12.2621 19.7091
rtibia 38.547
rfoot -21.837 -23.2181
rtoes -1.17382
lfemur -28.4853 -7.98476 -20.0492
ltibia 32.2357
lfoot -10.838 1.28103
ltoes -19.5006
472
root -0.786741 17.7338 -1.8557 8.57447 22.9396 3.0291
lowerback 11.1327 3.6323 -0.298368
upperback 3.3686 4.7931 -0.0546324
thorax -2.72739 2.38949 -0.524686
lowerneck -1.21265 -6.14888 -6.67914
upperneck 1.03054 -8.21319 7.52947
head 1.19028 -4.07898 3.45701
rclavicle -6.06293e-014 2.78299e-014
rhumerus 59.5868 11.6827 -26.2006
rradius 52.2557
rwrist -28.338
rhand -24.123 28.7714
rfingers 7.12502
rthumb 2.35857 -1.19529
lclavicle -6.06293e-014 2.78299e-014
lhumerus 50.0061 -17.2136 24.7974
lradius 72.6556
lwrist 43.0147
lhand -13.4579 26.3974
lfingers 7.12502
lthumb 12.6518 55.9942
rfemur -25.1278 -12.0582 19.7485
rtibia 38.3986
rfoot -21.5871 -23.1757
rtoes -1.00839
lfemur -28.5802 -7.91206 -19.977
ltibia 32.0858
lfoot -10.729 1.44412
ltoes -19.5124
473
root -0.787477 17.7381 -1.88159 8.7715 22.6921 3.08956
lowerback 11.1535 3.66039 -0.349473
upperback 3.43567 4.82359 -0.0799582
thorax -2.67078 2.40501 -0.525005
lowerneck -1.06809 -6.3304 -6.4802
upperneck 0.832431 -8.4575 7.50722
head 1.10805 -4.20386 3.41169
rclavicle -4.03533e-014 -7.95139e-016
rhumerus 58.7627 11.797 -26.0912
rradius 51.5311
rwrist -28.1267
rhand -23.8903 28.3502
rfingers 7.12502
rthumb 2.58331 -1.61392
lclavicle -4.03533e-014 -7.95139e-016
lhumerus 49.4885 -17.995 23.8104
lradius 72.3845
lwrist 42.8236
lhand -12.7748 26.4505
lfingers 7.12502
lthumb 13.3103 56.0055
rfemur -25.4278 -11.924 19.668
rtibia 38.3091
rfoot -21.3402 -23.0666
rtoes -1.1323
lfemur -28.764 -7.86252 -20.0394
ltibia 31.9778
lfoot -10.6622 1.64862
ltoes -19.6518
474
root -0.786933 17.743 -1.9081 8.89542 22.4365 3.11915
lowerback 11.268 3.66867 -0.336052
upperback 3.4899 4.83457 -0.0941843
thorax -2.67447 2.41039 -0.554172
lowerneck -0.852385 -6.49555 -6.44399
upperneck 0.61356 -8.68193 7.60842
head 1.02006 -4.32043 3.44326
rclavicle -4.9895e-014 2.70347e-014
rhumerus 57.9361 11.9857 -26.1175
rradius 50.757
rwrist -27.8125
rhand -23.7461 28.0298
rfingers 7.12502
rthumb 2.72255 -1.93261
lclavicle -4.9895e-014 2.70347e-014
lhumerus 48.9809 -18.8747 22.8601
lradius 71.9887
lwrist 42.1895
lhand -12.0769 26.3501
lfingers 7.12502
lthumb 13.9829 55.8598
rfemur -25.6508 -11.8571 19.6396
rtibia 38.2768
rfoot -21.1181 -22.9258
rtoes -1.58396
lfemur -28.8954 -7.7993 -20.0849
ltibia 31.9115
lfoot -10.603 1.81521
ltoes -19.4997
475
root -0.789701 17.7446 -1.93483 8.9197 22.1348 3.02971
lowerback 11.4376 3.65982 -0.295774
upperback 3.56737 4.82825 -0.0295183
thorax -2.68871 2.40689 -0.517448
lowerneck -0.642754 -6.63084 -6.57393
upperneck 0.309703 -8.86141 7.77267
head 0.914749 -4.41549 3.53071
rclavicle -3.49861e-014 3.18055e-015
rhumerus 57.2613 12.2076 -26.1345
rradius 49.922
rwrist -27.5648
rhand -23.5587 27.4388
rfingers 7.12502
rthumb 2.90355 -2.52121
lclavicle -3.49861e-014 3.18055e-015
lhumerus 48.4203 -19.7887 21.8889
lradius 71.5796
lwrist 41.6723
lhand -11.7185 26.2423
lfingers 7.12502
lthumb 14.3283 55.7278
rfemur -25.8424 -11.6502 19.7372
rtibia 38.2927
rfoot -20.9404 -22.8905
rtoes -1.72065
lfemur -28.9902 -7.7106 -19.987
ltibia 31.8574
lfoot -10.5354 1.97241
ltoes -19.305
476
root -0.793151 17.7459 -1.9606 8.97831 21.8408 2.97978
lowerback 11.5519 3.68942 -0.315112
upperback 3.67813 4.8657 0.00635592
thorax -2.64024 2.42565 -0.477955
lowerneck -0.570806 -6.81566 -6.44844
upperneck -0.0189474 -9.09919 7.81791
head 0.810536 -4.5373 3.52395
rclavicle -6.63941e-014 1.66979e-014
rhumerus 56.5181 12.3333 -25.9916
rradius 49.0815
rwrist -27.5279
rhand -23.8415 26.1982
rfingers 7.12502
rthumb 2.63041 -3.76537
lclavicle -6.63941e-014 1.66979e-014
lhumerus 48.0814 -20.6971 20.8599
lradius 71.1083
lwrist 41.2647
lhand -11.2881 26.1644
lfingers 7.12502
lthumb 14.743 55.6201
rfemur -26.0702 -11.4132 19.7845
rtibia 38.3058
rfoot -20.7704 -22.8919
rtoes -1.64446
lfemur -29.119 -7.64301 -19.9215
ltibia 31.8116
lfoot -10.4756 2.18272
ltoes -19.1261
477
root -0.793702 17.7475 -1.9865 9.07573 21.5649 3.06877
lowerback 11.6647 3.67214 -0.44425
upperback 3.78533 4.82841 0.0283937
thorax -2.60263 2.40717 -0.381791
lowerneck -0.483757 -6.97274 -6.36664
upperneck -0.304813 -9.30146 7.83526
head 0.715428 -4.64185 3.51739
rclavicle 7.87187e-014 -1.51076e-014
rhumerus 55.8109 12.5669 -25.8701
rradius 48.3226
rwrist -27.5966
rhand -24.23 24.8419
rfingers 7.12502
rthumb 2.25524 -5.12588
lclavicle 7.87187e-014 -1.51076e-014
lhumerus 47.6022 -21.5325 20.016
lradius 70.6159
lwrist 40.5925
lhand -10.0481 26.7878
lfingers 7.12502
lthumb 15.9373 56.1521
rfemur -26.2661 -11.2562 19.6676
rtibia 38.283
rfoot -20.6325 -22.8113
rtoes -1.71797
lfemur -29.2231 -7.57038 -20.0268
ltibia 31.7774
lfoot -10.3422 2.34108
ltoes -18.7243
478
root -0.792966 17.7483 -2.01264 9.16315 21.2554 3.11453
lowerback 11.8166 3.64388 -0.427514
upperback 3.86006 4.79077 0.000292645
thorax -2.60359 2.38853 -0.422088
lowerneck -0.338277 -7.10884 -6.36139
upperneck -0.634418 -9.47693 7.99005
head 0.606113 -4.73448 3.57675
rclavicle 6.2816e-014 -3.57812e-014
rhumerus 54.9925 12.783 -26.0527
rradius 47.6066
rwrist -27.7763
rhand -23.732 24.0147
rfingers 7.12502
rthumb 2.73623 -5.94748
lclavicle 6.2816e-014 -3.57812e-014
lhumerus 47.13 -22.4638 19.0432
lradius 70.1347
lwrist 40.1367
lhand -9.06029 27.4753
lfingers 7.12502
lthumb 16.8884 56.761
rfemur -26.5049 -11.0842 19.576
rtibia 38.2519
rfoot -20.3412 -22.768
rtoes -2.05606
lfemur -29.3395 -7.42354 -20.1064
ltibia 31.7531
lfoot -10.1961 2.41982
ltoes -18.1362
